HIERARCHY
ROOT hip
{
  OFFSET 0 0 0
  CHANNELS 6 Xposition Yposition Zposition Zrotation Yrotation Xrotation
  JOINT abdomen
  {
    OFFSET 0 20.6881 -0.73152
    CHANNELS 3 Zrotation Xrotation Yrotation
    JOINT chest
    {
      OFFSET 0 11.7043 -0.48768
      CHANNELS 3 Zrotation Xrotation Yrotation
      JOINT neck
      {
        OFFSET 0 22.1894 -2.19456
        CHANNELS 3 Zrotation Xrotation Yrotation
        JOINT head
        {
          OFFSET -0.24384 7.07133 1.2192
          CHANNELS 3 Zrotation Xrotation Yrotation
          JOINT leftEye
          {
            OFFSET 4.14528 8.04674 8.04672
            CHANNELS 3 Zrotation Xrotation Yrotation
            End Site
            {
              OFFSET 1 0 0
            }
          }
          JOINT rightEye
          {
            OFFSET -3.6576 8.04674 8.04672
            CHANNELS 3 Zrotation Xrotation Yrotation
            End Site
            {
              OFFSET 1 0 0
            }
          }
        }
      }
      JOINT rCollar
      {
        OFFSET -2.68224 19.2634 -4.8768
        CHANNELS 3 Zrotation Xrotation Yrotation
        JOINT rShldr
        {
          OFFSET -8.77824 -1.95073 1.46304
          CHANNELS 3 Zrotation Xrotation Yrotation
          JOINT rForeArm
          {
            OFFSET -28.1742 -1.7115 0.48768
            CHANNELS 3 Zrotation Xrotation Yrotation
            JOINT rHand
            {
              OFFSET -22.5879 0.773209 7.07136
              CHANNELS 3 Zrotation Xrotation Yrotation
              JOINT rThumb1
              {
                OFFSET -1.2192 -0.487915 3.41376
                CHANNELS 3 Zrotation Xrotation Yrotation
                JOINT rThumb2
                {
                  OFFSET -3.37035 -0.52449 3.41376
                  CHANNELS 3 Zrotation Xrotation Yrotation
                  End Site
                  {
                    OFFSET -1.78271 -1.18214 1.43049
                  }
                }
              }
              JOINT rIndex1
              {
                OFFSET -7.75947 0.938293 5.60832
                CHANNELS 3 Zrotation Xrotation Yrotation
                JOINT rIndex2
                {
                  OFFSET -2.54057 -0.884171 1.56538
                  CHANNELS 3 Zrotation Xrotation Yrotation
                  End Site
                  {
                    OFFSET -1.62519 -0.234802 1.16502
                  }
                }
              }
              JOINT rMid1
              {
                OFFSET -8.24714 1.18213 3.41376
                CHANNELS 3 Zrotation Xrotation Yrotation
                JOINT rMid2
                {
                  OFFSET -3.10165 -0.590103 1.0647
                  CHANNELS 3 Zrotation Xrotation Yrotation
                  End Site
                  {
                    OFFSET -2.48547 -0.328903 0.83742
                  }
                }
              }
              JOINT rRing1
              {
                OFFSET -8.82822 0.546677 1.51678
                CHANNELS 3 Zrotation Xrotation Yrotation
                JOINT rRing2
                {
                  OFFSET -2.60934 -0.819778 -0.0198488
                  CHANNELS 3 Zrotation Xrotation Yrotation
                  End Site
                  {
                    OFFSET -2.33842 -0.294052 0.168128
                  }
                }
              }
              JOINT rPinky1
              {
                OFFSET -8.27202 -0.0477905 -0.4584
                CHANNELS 3 Zrotation Xrotation Yrotation
                JOINT rPinky2
                {
                  OFFSET -1.82734 -0.647385 -0.700984
                  CHANNELS 3 Zrotation Xrotation Yrotation
                  End Site
                  {
                    OFFSET -1.69225 -0.51767 -0.607171
                  }
                }
              }
            }
          }
        }
      }
      JOINT lCollar
      {
        OFFSET 2.68224 19.2634 -4.8768
        CHANNELS 3 Zrotation Xrotation Yrotation
        JOINT lShldr
        {
          OFFSET 8.77824 -1.95073 1.46304
          CHANNELS 3 Zrotation Xrotation Yrotation
          JOINT lForeArm
          {
            OFFSET 28.1742 -1.7115 0.48768
            CHANNELS 3 Zrotation Xrotation Yrotation
            JOINT lHand
            {
              OFFSET 22.5879 0.773209 7.07136
              CHANNELS 3 Zrotation Xrotation Yrotation
              JOINT lThumb1
              {
                OFFSET 1.2192 -0.487915 3.41376
                CHANNELS 3 Zrotation Xrotation Yrotation
                JOINT lThumb2
                {
                  OFFSET 3.37035 -0.52449 3.41376
                  CHANNELS 3 Zrotation Xrotation Yrotation
                  End Site
                  {
                    OFFSET 1.78271 -1.18214 1.43049
                  }
                }
              }
              JOINT lIndex1
              {
                OFFSET 7.75947 0.938293 5.60832
                CHANNELS 3 Zrotation Xrotation Yrotation
                JOINT lIndex2
                {
                  OFFSET 2.54057 -0.884171 1.56538
                  CHANNELS 3 Zrotation Xrotation Yrotation
                  End Site
                  {
                    OFFSET 1.62519 -0.234802 1.16502
                  }
                }
              }
              JOINT lMid1
              {
                OFFSET 8.24714 1.18213 3.41376
                CHANNELS 3 Zrotation Xrotation Yrotation
                JOINT lMid2
                {
                  OFFSET 3.10165 -0.590103 1.0647
                  CHANNELS 3 Zrotation Xrotation Yrotation
                  End Site
                  {
                    OFFSET 2.48547 -0.328903 0.83742
                  }
                }
              }
              JOINT lRing1
              {
                OFFSET 8.82822 0.546677 1.51678
                CHANNELS 3 Zrotation Xrotation Yrotation
                JOINT lRing2
                {
                  OFFSET 2.60934 -0.819778 -0.0198488
                  CHANNELS 3 Zrotation Xrotation Yrotation
                  End Site
                  {
                    OFFSET 2.33842 -0.294052 0.168128
                  }
                }
              }
              JOINT lPinky1
              {
                OFFSET 8.27202 -0.0477905 -0.4584
                CHANNELS 3 Zrotation Xrotation Yrotation
                JOINT lPinky2
                {
                  OFFSET 1.82734 -0.647385 -0.700984
                  CHANNELS 3 Zrotation Xrotation Yrotation
                  End Site
                  {
                    OFFSET 1.69225 -0.51767 -0.607171
                  }
                }
              }
            }
          }
        }
      }
    }
  }
  JOINT rButtock
  {
    OFFSET -8.77824 4.35084 1.2192
    CHANNELS 3 Zrotation Xrotation Yrotation
    JOINT rThigh
    {
      OFFSET 0 -1.70687 -2.19456
      CHANNELS 3 Zrotation Xrotation Yrotation
      JOINT rShin
      {
        OFFSET 0 -36.8199 0.73152
        CHANNELS 3 Zrotation Xrotation Yrotation
        JOINT rFoot
        {
          OFFSET 0.73152 -45.1104 -5.12064
          CHANNELS 3 Zrotation Xrotation Yrotation
          End Site
          {
            OFFSET -1.1221 -3.69964 12.103
          }
        }
      }
    }
  }
  JOINT lButtock
  {
    OFFSET 8.77824 4.35084 1.2192
    CHANNELS 3 Zrotation Xrotation Yrotation
    JOINT lThigh
    {
      OFFSET 0 -1.70687 -2.19456
      CHANNELS 3 Zrotation Xrotation Yrotation
      JOINT lShin
      {
        OFFSET 0 -36.8199 0.73152
        CHANNELS 3 Zrotation Xrotation Yrotation
        JOINT lFoot
        {
          OFFSET -0.73152 -45.1104 -5.12064
          CHANNELS 3 Zrotation Xrotation Yrotation
          End Site
          {
            OFFSET 1.1221 -3.69964 12.103
          }
        }
      }
    }
  }
}
MOTION
Frames:	6
Frame Time:	0.00833333
77.7504 84.5501 -3.9283 0.0 0.0 0.0 -0.73506 -0.00369194 -0.0206963 -0.202663 -0.00499162 -0.0351139 -8.85415e-15 -7.95139e-16 -1.24241e-17 -2.6839e-14 9.54166e-15 -9.16273e-17 -0.0 0.0 0.0 -0.0 0.0 0.0 -4.47415e-15 -3.88251e-18 9.93923e-17 -9.22911e-14 -7.45443e-17 3.97569e-16 -1.61771e-12 4.81258e-13 6.36111e-15 -1.85462e-11 -5.06578e-13 -1.11319e-13 -4.37461e-11 -5.3585e-14 -2.09917e-13 -7.5562e-11 -8.90555e-14 -3.70535e-13 -4.37418e-11 -5.20816e-14 -2.22639e-13 7.73091 5.47488 0.417314 -4.37456e-11 -5.38706e-14 -2.09917e-13 2.90554 0.965183 0.102902 -4.37365e-11 -5.32743e-14 -2.14687e-13 10.2786 0.731801 0.0259123 -4.37545e-11 -5.00937e-14 -2.13097e-13 2.22167 -0.733487 -0.20892 -4.47145e-15 -5.04727e-18 -9.93923e-17 -9.62096e-14 1.2424e-16 -1.78906e-15 -1.62452e-12 -4.86824e-13 6.36111e-15 -1.85473e-11 4.67591e-13 -1.145e-13 -4.37549e-11 -4.63324e-14 -2.22639e-13 -7.55533e-11 -7.63333e-14 -3.7133e-13 -4.37597e-11 -4.49253e-14 -2.06736e-13 -7.73091 5.47488 -0.417314 -4.37549e-11 -4.62174e-14 -2.19458e-13 -2.90554 0.965183 -0.102902 -4.37612e-11 -4.63168e-14 -2.14687e-13 -10.2786 0.731801 -0.0259123 -4.37451e-11 -4.25399e-14 -2.16278e-13 -2.22167 -0.733487 0.20892 -2.03217e-16 0.0 -3.88251e-19 -0.0339652 -2.13128 -0.0183732 -0.00890297 -1.69207 -0.0750934 -0.522818 3.82303 0.138301 2.03217e-16 0.0 3.88251e-19 -1.08348 -4.91189 0.0910271 0.00129161 3.34453 -0.002654 0.531287 1.56717 -0.0928532
75.1989 82.8934 -6.03831 3.742 -46.8547 2.622 -1.78188 -0.244191 0.351859 0.938235 0.14831 0.0574875 -2.77678 -1.29804 -1.33134 2.87599 2.49833 -1.93947 -0.0 0.0 0.0 -0.0 0.0 0.0 -1.43712e-15 -2.84224e-15 -3.72972e-13 21.1736 1.20778 0.684972 -4.74748 -2.27365 7.28431 0.0059933 -1.72153 -0.241554 9.24178e-10 1.43615e-10 -1.25121e-09 1.60435e-09 2.48876e-10 -2.16328e-09 9.24183e-10 1.43618e-10 -1.25122e-09 7.73091 5.47488 0.417314 9.24178e-10 1.43616e-10 -1.25121e-09 2.90554 0.965183 0.102902 9.24187e-10 1.43617e-10 -1.25122e-09 10.2786 0.731801 0.0259123 9.24172e-10 1.4362e-10 -1.25121e-09 2.22167 -0.733487 -0.20892 -1.46433e-15 -2.84984e-15 -3.73183e-13 -21.5786 3.66763 -0.596636 4.88822 -2.37262 -7.46328 -0.00766259 1.94251 -0.272436 1.49251e-09 -1.16506e-09 -3.66348e-10 2.57733e-09 -2.03841e-09 -6.46071e-10 1.4925e-09 -1.16505e-09 -3.66332e-10 -7.73091 5.47488 -0.417314 1.49251e-09 -1.16506e-09 -3.66348e-10 -2.90554 0.965183 -0.102902 1.4925e-09 -1.16506e-09 -3.66342e-10 -10.2786 0.731801 -0.0259123 1.49251e-09 -1.16505e-09 -3.66345e-10 -2.22167 -0.733487 0.20892 -2.03217e-16 0.0 -3.88251e-19 -2.0594 -7.41751 -0.926763 0.0415523 8.7323 0.128182 -0.995198 -1.99946 -3.92309 2.03217e-16 0.0 3.88251e-19 -0.439636 -7.35365 1.68339 -0.0178528 9.34588 -0.110237 0.611528 -2.21117 1.64731
75.0583 83.0898 -6.065 3.2812 -46.7128 2.9303 -2.88782 -0.499942 0.748965 2.13369 0.311426 0.156342 -5.74897 -2.69347 -2.74514 6.05317 5.16718 -4.01636 -0.0 0.0 0.0 -0.0 0.0 0.0 9.19111e-16 -8.48649e-15 -8.01804e-13 43.5458 2.47562 1.41585 -9.14051 -4.55278 15.0176 -0.00347466 -3.52752 -0.4957 2.08063e-09 3.14295e-10 -2.73365e-09 3.61159e-09 5.44655e-10 -4.72635e-09 2.08064e-09 3.14299e-10 -2.73367e-09 7.73091 5.47488 0.417314 2.08063e-09 3.14297e-10 -2.73366e-09 2.90554 0.965183 0.102902 2.08064e-09 3.14298e-10 -2.73366e-09 10.2786 0.731801 0.0259123 2.08063e-09 3.14301e-10 -2.73365e-09 2.22167 -0.733487 -0.20892 8.60778e-16 -8.50116e-15 -8.02028e-13 -44.2974 7.55239 -1.25086 9.38864 -4.7458 -15.3922 0.00438318 4.00146 -0.562268 3.31504e-09 -2.54663e-09 -8.14896e-10 5.72457e-09 -4.45574e-09 -1.43665e-09 3.31504e-09 -2.54662e-09 -8.14879e-10 -7.73091 5.47488 -0.417314 3.31504e-09 -2.54663e-09 -8.14898e-10 -2.90554 0.965183 -0.102902 3.31504e-09 -2.54663e-09 -8.14892e-10 -10.2786 0.731801 -0.0259123 3.31505e-09 -2.54662e-09 -8.14896e-10 -2.22167 -0.733487 0.20892 -2.03217e-16 0.0 -3.88251e-19 -4.39262 -13.0025 -1.92269 0.0104463 19.7551 0.36118 -2.39298 -8.08126 -8.28047 2.03217e-16 0.0 3.88251e-19 0.387799 -9.92062 3.3982 -0.0126959 15.6898 -0.229535 0.947038 -6.19322 3.50645
74.9307 83.1345 -6.02982 3.3735 -46.6752 2.7382 -3.86615 -0.725071 1.09705 3.21855 0.454909 0.242697 -8.5115 -3.88569 -4.00221 9.1381 7.46049 -5.86269 -0.0 0.0 0.0 -0.0 0.0 0.0 4.63694e-15 -8.51896e-15 -1.11911e-12 63.4339 3.62127 2.05857 -12.5458 -6.38091 21.9788 -0.0257167 -5.16421 -0.727286 2.86003e-09 4.30953e-10 -3.75322e-09 4.96417e-09 7.46805e-10 -6.48909e-09 2.86003e-09 4.30958e-10 -3.75323e-09 7.73091 5.47488 0.417314 2.86003e-09 4.30956e-10 -3.75322e-09 2.90554 0.965183 0.102902 2.86003e-09 4.30957e-10 -3.75322e-09 10.2786 0.731801 0.0259123 2.86003e-09 4.30961e-10 -3.75321e-09 2.22167 -0.733487 -0.20892 4.5499e-15 -8.53943e-15 -1.11935e-12 -64.5031 10.9981 -1.81968 12.8524 -6.63582 -22.5297 0.0326742 5.82701 -0.821082 4.56503e-09 -3.49508e-09 -1.0986e-09 7.88308e-09 -6.11509e-09 -1.93747e-09 4.56502e-09 -3.49507e-09 -1.09858e-09 -7.73091 5.47488 -0.417314 4.56503e-09 -3.49508e-09 -1.09861e-09 -2.90554 0.965183 -0.102902 4.56502e-09 -3.49508e-09 -1.0986e-09 -10.2786 0.731801 -0.0259123 4.56502e-09 -3.49508e-09 -1.0986e-09 -2.22167 -0.733487 0.20892 -2.03217e-16 0.0 -3.88251e-19 -6.63577 -17.9719 -2.85995 -0.104554 29.5797 0.609671 -4.44851 -13.3525 -12.3778 2.03217e-16 0.0 3.88251e-19 1.2635 -12.2025 4.93908 0.0159371 21.3483 -0.344674 1.46746 -9.73116 5.19888
74.9107 83.0993 -5.97576 3.8758 -46.7023 2.3298 -4.5323 -0.873766 1.3225 4.02802 0.549311 0.297798 -10.6154 -4.57836 -4.85894 11.6133 8.85007 -7.08677 -0.0 0.0 0.0 -0.0 0.0 0.0 1.17588e-14 5.47803e-15 -1.15762e-12 77.1731 4.46345 2.47747 -14.6594 -7.49891 26.8903 -0.0501518 -6.37796 -0.900121 2.69676e-09 4.12556e-10 -3.61557e-09 4.68009e-09 7.14881e-10 -6.25103e-09 2.69677e-09 4.12562e-10 -3.61558e-09 7.73091 5.47488 0.417314 2.69676e-09 4.12561e-10 -3.61557e-09 2.90554 0.965183 0.102902 2.69677e-09 4.12562e-10 -3.61557e-09 10.2786 0.731801 0.0259123 2.69676e-09 4.12566e-10 -3.61557e-09 2.22167 -0.733487 -0.20892 1.1649e-14 5.45493e-15 -1.15787e-12 -78.6021 13.3512 -2.1446 14.9839 -7.77637 -27.5553 0.0616923 7.06956 -0.998686 4.38362e-09 -3.36073e-09 -9.70196e-10 7.56979e-09 -5.87949e-09 -1.71391e-09 4.38362e-09 -3.36073e-09 -9.7018e-10 -7.73091 5.47488 -0.417314 4.38362e-09 -3.36073e-09 -9.70203e-10 -2.90554 0.965183 -0.102902 4.38361e-09 -3.36073e-09 -9.70196e-10 -10.2786 0.731801 -0.0259123 4.38362e-09 -3.36073e-09 -9.70203e-10 -2.22167 -0.733487 0.20892 -2.03217e-16 0.0 -3.88251e-19 -8.27268 -21.4191 -3.54366 -0.247914 36.4104 0.824016 -6.37769 -16.8856 -15.4696 2.03217e-16 0.0 3.88251e-19 1.96182 -13.8024 5.98583 0.0509147 25.2937 -0.432067 1.95655 -12.1952 6.40193
74.9102 83.0631 -5.95973 4.0689 -46.5665 2.1619 -4.76629 -0.892897 1.35795 4.46954 0.564977 0.304021 -11.8047 -4.51711 -5.13829 13.1948 8.90181 -7.37168 -0.0 0.0 0.0 -0.0 0.0 0.0 2.75984e-14 5.07006e-14 -7.22757e-13 82.3081 4.91963 2.58071 -15.4521 -7.91124 28.8702 -0.0648613 -7.03311 -0.993788 8.40744e-10 1.5226e-10 -1.41933e-09 1.4569e-09 2.63683e-10 -2.45362e-09 8.40748e-10 1.52266e-10 -1.41935e-09 7.73091 5.47488 0.417314 8.40742e-10 1.52266e-10 -1.41934e-09 2.90554 0.965183 0.102902 8.40749e-10 1.52267e-10 -1.41934e-09 10.2786 0.731801 0.0259123 8.40745e-10 1.5227e-10 -1.41933e-09 2.22167 -0.733487 -0.20892 2.74708e-14 5.06799e-14 -7.23023e-13 -84.2493 14.1877 -2.08519 15.7764 -8.19021 -29.5718 0.0734832 7.47271 -1.05667 1.63655e-09 -1.3182e-09 -8.97347e-11 2.82584e-09 -2.30379e-09 -1.68806e-10 1.63655e-09 -1.31819e-09 -8.97207e-11 -7.73091 5.47488 -0.417314 1.63655e-09 -1.31819e-09 -8.97399e-11 -2.90554 0.965183 -0.102902 1.63654e-09 -1.3182e-09 -8.97351e-11 -10.2786 0.731801 -0.0259123 1.63655e-09 -1.31819e-09 -8.97433e-11 -2.22167 -0.733487 0.20892 -2.03217e-16 0.0 -3.88251e-19 -8.86837 -22.7286 -3.7751 -0.32126 39.0441 0.921838 -7.31602 -18.1989 -16.9113 2.03217e-16 0.0 3.88251e-19 2.27817 -14.461 6.31067 0.068632 26.8535 -0.468364 2.17214 -13.1958 6.84573
